<svg width="100" height="100" viewBox="0 0 100 100" fill="none" xmlns="http://www.w3.org/2000/svg">
<path d="M23.1537 35.6009C24.2574 37.6666 25.3372 39.8236 26.1963 41.8131C27.2706 44.3007 28 46.5265 28 47.9844C28 53.5159 23.299 58 17.5 58C11.701 58 7 53.5159 7 47.9844C7 46.705 7.56176 44.8341 8.4254 42.7138C9.22431 40.7525 10.2816 38.5777 11.3914 36.4603C12.1617 34.9908 12.9573 33.5489 13.7095 32.2252C15.3953 29.2583 19.6047 29.2583 21.2905 32.2252C21.8954 33.2897 22.5284 34.4307 23.1537 35.6009Z" fill="#3B4BDD"/>
<path d="M39.5 17L55.7498 29.9043C56.1692 30.2373 56.7766 30.1808 57.1274 29.7761L61.0225 25.2818C62.1126 24.024 64.0182 23.894 65.2689 24.9922L81.3228 39.0884C82.5373 40.1547 82.6888 41.9915 81.6653 43.2424L79.3883 46.0254C79.1501 46.3166 79.0954 46.7169 79.247 47.0613L94.3818 81.4585C95.0128 82.8928 94.4337 84.5712 93.0525 85.3112L84.3227 89.9878C82.7944 90.8066 80.8923 90.1632 80.1749 88.5848L79 86L66.7966 90.9333C60.9502 93.2967 54.4022 89.7248 53.2246 83.5296L44 35L34 27L12.3888 19.5022C10.8023 18.9518 9.97655 17.2065 10.5571 15.6308L12.0231 11.6515C12.5718 10.1622 14.1857 9.35794 15.7052 9.81665L39.5 17Z" fill="#3B4BDD"/>
<path d="M50 35L50.8421 39M54 54L52 44.5" stroke="white" stroke-width="4" stroke-linecap="round" stroke-linejoin="round"/>
<path d="M57.3145 63.3097L59.7937 80.9741C60.1533 83.5362 62.8139 85.0881 65.221 84.1398L73.3865 80.9231C75.3988 80.1304 76.4165 77.8816 75.6839 75.8466L70.0376 60.1624C68.8832 56.9557 65.4736 55.1588 62.1758 56.0191C58.9399 56.8632 56.8497 59.9979 57.3145 63.3097Z" fill="white" stroke="#3B4BDD" stroke-width="4" stroke-linecap="round" stroke-linejoin="round"/>
<path d="M58.5 58.5L61.837 61.2808C63.5768 62.7306 64.8708 64.6432 65.5694 66.7974L70.5 82" stroke="#3B4BDD" stroke-width="4" stroke-linecap="round" stroke-linejoin="round"/>
</svg>
