<svg width="100" height="100" viewBox="0 0 100 100" fill="none" xmlns="http://www.w3.org/2000/svg">
<g clip-path="url(#clip0_1424_1551)">
<path d="M34.375 9.375C34.375 5.92322 37.1732 3.125 40.625 3.125H59.375C62.8268 3.125 65.625 5.92322 65.625 9.375V15.625H75C78.4518 15.625 81.25 18.4232 81.25 21.875V34.375C81.25 35.4002 81.0031 36.3678 80.5656 37.2215C79.7213 38.869 77.557 38.2595 76.5818 36.686C71.0723 27.7961 61.2276 21.875 50 21.875C38.7724 21.875 28.9277 27.7961 23.4182 36.686C22.443 38.2595 20.2787 38.869 19.4344 37.2215C18.9969 36.3678 18.75 35.4002 18.75 34.375V21.875C18.75 18.4232 21.5482 15.625 25 15.625H34.375V9.375Z" fill="#3B4BDD"/>
<path d="M50 25C61.0416 25 70.5971 31.3628 75.1999 40.6219C77.0722 44.3881 78.125 48.6336 78.125 53.125C78.125 61.8623 74.1408 69.6691 67.8901 74.8276C66.8978 75.6466 65.432 75.2232 64.8898 74.0564C64.2697 72.722 63.6074 71.3711 62.927 70.0334C62.2485 68.6994 62.605 67.086 63.6327 65.9979C66.8051 62.6396 68.75 58.1094 68.75 53.125C68.75 42.7697 60.3553 34.375 50 34.375C39.6447 34.375 31.25 42.7697 31.25 53.125C31.25 58.9754 33.9295 64.2 38.1281 67.6385C39.4136 68.6912 39.9586 70.4837 39.2281 71.9759C38.7931 72.8646 38.3713 73.7524 37.9693 74.6321C37.1933 76.3299 35.1305 77.0751 33.6141 75.9863C26.5054 70.882 21.875 62.5443 21.875 53.125C21.875 48.6336 22.9278 44.3881 24.8001 40.6219C29.4029 31.3628 38.9584 25 50 25Z" fill="#3B4BDD"/>
<path d="M59.1344 69.5034C60.6126 72.3158 62.0587 75.2525 63.2094 77.9613C64.6482 81.3483 65.625 84.3787 65.625 86.3636C65.625 93.8948 59.329 100 51.5625 100C43.796 100 37.5 93.8948 37.5 86.3636C37.5 84.6217 38.2524 82.0745 39.409 79.1877C40.479 76.5173 41.8949 73.5563 43.3814 70.6734C44.413 68.6727 45.4785 66.7095 46.4859 64.9072C48.7438 60.8678 54.3812 60.8678 56.6391 64.9072C57.4492 66.3566 58.297 67.91 59.1344 69.5034Z" fill="#3B4BDD"/>
</g>
<defs>
<clipPath id="clip0_1424_1551">
<rect width="100" height="100" fill="white"/>
</clipPath>
</defs>
</svg>
