<svg width="100" height="100" viewBox="0 0 100 100" fill="none" xmlns="http://www.w3.org/2000/svg">
<rect x="37" y="28" width="26" height="10" rx="3" stroke="#3B4BDD" stroke-width="5"/>
<path d="M42 41C42 39.3431 43.3431 38 45 38H55C56.6569 38 58 39.3431 58 41V45.3184C58 45.7671 58.1007 46.2101 58.2946 46.6147L78.9413 89.7036C79.8955 91.695 78.444 94 76.2359 94H23.7641C21.556 94 20.1045 91.695 21.0587 89.7036L41.7054 46.6147C41.8993 46.2101 42 45.7671 42 45.3184V41Z" stroke="#3B4BDD" stroke-width="5"/>
<path d="M36.6151 69.7781C37.3706 68.0694 39.4988 67.4488 41.1704 68.283C42.7968 69.0947 44.7986 69.8986 46.5 70C50.3837 70.2315 52.1096 67.0394 56 67C57.4772 66.9851 59.4421 67.3839 60.6981 67.6823C61.4926 67.871 62.1515 68.4079 62.5338 69.1294L69.667 82.5957C70.7254 84.5937 69.277 87 67.016 87H33.6067C31.4382 87 29.986 84.7701 30.863 82.7868L36.6151 69.7781Z" fill="#3B4BDD"/>
<circle cx="41" cy="17" r="5" fill="#3B4BDD"/>
<circle cx="59" cy="12" r="7" fill="#3B4BDD"/>
</svg>
