<svg width="100" height="100" viewBox="0 0 100 100" fill="none" xmlns="http://www.w3.org/2000/svg">
<circle cx="50" cy="54" r="43" fill="#3B4BDD"/>
<circle cx="50" cy="54" r="33" fill="#3B4BDD" stroke="white" stroke-width="4"/>
<path d="M27.4766 44.768C27.4766 43.648 27.7486 42.64 28.2926 41.744C28.8526 40.848 29.6046 40.144 30.5486 39.632C31.4926 39.104 32.5486 38.84 33.7166 38.84C34.9966 38.84 36.1006 39.152 37.0286 39.776C37.9726 40.384 38.7006 41.272 39.2126 42.44C39.7246 43.592 39.9806 44.992 39.9806 46.64C39.9806 48.704 39.7086 50.456 39.1646 51.896C38.6366 53.32 37.8766 54.4 36.8846 55.136C35.8926 55.872 34.7246 56.24 33.3806 56.24C32.3246 56.24 31.3406 56.008 30.4286 55.544C29.5166 55.064 28.7486 54.392 28.1246 53.528L29.9726 51.512C30.3566 52.104 30.8526 52.576 31.4606 52.928C32.0686 53.264 32.7246 53.432 33.4286 53.432C34.1486 53.432 34.7726 53.24 35.3006 52.856C35.8286 52.472 36.2366 51.92 36.5246 51.2C36.8286 50.464 36.9886 49.584 37.0046 48.56C36.7806 48.944 36.4926 49.28 36.1406 49.568C35.7886 49.856 35.3806 50.072 34.9166 50.216C34.4686 50.36 33.9726 50.432 33.4286 50.432C32.3086 50.432 31.2926 50.184 30.3806 49.688C29.4846 49.176 28.7726 48.496 28.2446 47.648C27.7326 46.784 27.4766 45.824 27.4766 44.768ZM33.6926 41.528C33.1326 41.528 32.6126 41.68 32.1326 41.984C31.6686 42.272 31.2926 42.664 31.0046 43.16C30.7166 43.64 30.5726 44.168 30.5726 44.744C30.5726 45.32 30.7086 45.848 30.9806 46.328C31.2686 46.792 31.6526 47.168 32.1326 47.456C32.6126 47.728 33.1406 47.864 33.7166 47.864C34.2926 47.864 34.8126 47.728 35.2766 47.456C35.7566 47.168 36.1406 46.792 36.4286 46.328C36.7166 45.848 36.8606 45.328 36.8606 44.768C36.8606 44.176 36.7086 43.64 36.4046 43.16C36.1166 42.68 35.7326 42.288 35.2526 41.984C34.7886 41.68 34.2686 41.528 33.6926 41.528Z" fill="white"/>
<path d="M49.6387 41.888H41.9107V38.96H54.7267L46.2547 56H42.6067L49.6387 41.888Z" fill="white"/>
<path d="M59.4181 45.992C58.6821 45.992 58.0181 45.832 57.4261 45.512C56.8341 45.176 56.3541 44.736 55.9861 44.192C55.6341 43.632 55.4581 43.016 55.4581 42.344C55.4581 41.672 55.6341 41.064 55.9861 40.52C56.3541 39.96 56.8341 39.52 57.4261 39.2C58.0181 38.88 58.6821 38.72 59.4181 38.72C60.1541 38.72 60.8181 38.88 61.4101 39.2C62.0181 39.52 62.4981 39.96 62.8501 40.52C63.2021 41.064 63.3781 41.672 63.3781 42.344C63.3781 43.016 63.2021 43.632 62.8501 44.192C62.4981 44.736 62.0181 45.176 61.4101 45.512C60.8181 45.832 60.1541 45.992 59.4181 45.992ZM59.4181 44.384C59.7381 44.384 60.0261 44.288 60.2821 44.096C60.5381 43.904 60.7381 43.656 60.8821 43.352C61.0421 43.048 61.1221 42.72 61.1221 42.368C61.1221 41.984 61.0421 41.64 60.8821 41.336C60.7221 41.032 60.5141 40.792 60.2581 40.616C60.0021 40.424 59.7221 40.328 59.4181 40.328C59.0981 40.328 58.8101 40.424 58.5541 40.616C58.2981 40.792 58.0901 41.032 57.9301 41.336C57.7861 41.64 57.7141 41.976 57.7141 42.344C57.7141 42.712 57.7941 43.056 57.9541 43.376C58.1141 43.68 58.3221 43.928 58.5781 44.12C58.8341 44.296 59.1141 44.384 59.4181 44.384ZM68.6821 56.24C67.9461 56.24 67.2821 56.08 66.6901 55.76C66.0981 55.44 65.6181 55.008 65.2501 54.464C64.8981 53.904 64.7221 53.288 64.7221 52.616C64.7221 51.928 64.8981 51.312 65.2501 50.768C65.6181 50.224 66.0981 49.792 66.6901 49.472C67.2821 49.136 67.9461 48.968 68.6821 48.968C69.4181 48.968 70.0821 49.136 70.6741 49.472C71.2821 49.792 71.7621 50.224 72.1141 50.768C72.4661 51.312 72.6421 51.92 72.6421 52.592C72.6421 53.264 72.4661 53.88 72.1141 54.44C71.7621 54.984 71.2821 55.424 70.6741 55.76C70.0821 56.08 69.4181 56.24 68.6821 56.24ZM68.6821 54.632C69.0021 54.632 69.2901 54.536 69.5461 54.344C69.8021 54.152 70.0021 53.904 70.1461 53.6C70.3061 53.296 70.3861 52.968 70.3861 52.616C70.3861 52.232 70.3061 51.888 70.1461 51.584C70.0021 51.28 69.7941 51.04 69.5221 50.864C69.2661 50.672 68.9861 50.576 68.6821 50.576C68.3781 50.576 68.0901 50.672 67.8181 50.864C67.5621 51.04 67.3541 51.288 67.1941 51.608C67.0501 51.912 66.9781 52.24 66.9781 52.592C66.9781 52.976 67.0581 53.32 67.2181 53.624C67.3781 53.928 67.5861 54.176 67.8421 54.368C68.0981 54.544 68.3781 54.632 68.6821 54.632ZM56.8261 54.872L63.5701 46.976L69.8101 38.768L71.2741 40.064L64.6981 47.84L58.2661 56.168L56.8261 54.872Z" fill="white"/>
<path d="M36.1387 73.365C36.1387 72.787 36.2973 72.2826 36.6147 71.852C36.9433 71.41 37.3967 71.07 37.9747 70.832C38.5527 70.594 39.2157 70.475 39.9637 70.475C40.3377 70.475 40.7173 70.5033 41.1027 70.56C41.488 70.6166 41.8223 70.7073 42.1057 70.832V70.356C42.1057 69.7893 41.9357 69.353 41.5957 69.047C41.267 68.741 40.774 68.588 40.1167 68.588C39.6293 68.588 39.1647 68.673 38.7227 68.843C38.2807 69.013 37.816 69.2623 37.3287 69.591L36.5977 68.095C37.187 67.7096 37.7877 67.4206 38.3997 67.228C39.023 67.0353 39.6747 66.939 40.3547 66.939C41.624 66.939 42.61 67.2563 43.3127 67.891C44.0267 68.5256 44.3837 69.4323 44.3837 70.611V73.45C44.3837 73.688 44.4233 73.858 44.5027 73.96C44.5933 74.062 44.735 74.1243 44.9277 74.147V76C44.7237 76.034 44.5367 76.0623 44.3667 76.085C44.208 76.1076 44.072 76.119 43.9587 76.119C43.5053 76.119 43.1597 76.017 42.9217 75.813C42.695 75.609 42.5533 75.3596 42.4967 75.065L42.4457 74.606C42.0603 75.1046 41.5787 75.49 41.0007 75.762C40.4227 76.034 39.8333 76.17 39.2327 76.17C38.6433 76.17 38.1107 76.051 37.6347 75.813C37.17 75.5636 36.8017 75.2293 36.5297 74.81C36.269 74.3793 36.1387 73.8976 36.1387 73.365ZM41.6807 73.824C41.8053 73.688 41.9073 73.552 41.9867 73.416C42.066 73.28 42.1057 73.1553 42.1057 73.042V72.141C41.8337 72.0276 41.539 71.9426 41.2217 71.886C40.9043 71.818 40.604 71.784 40.3207 71.784C39.7313 71.784 39.244 71.9143 38.8587 72.175C38.4847 72.4243 38.2977 72.7586 38.2977 73.178C38.2977 73.4046 38.36 73.62 38.4847 73.824C38.6093 74.028 38.7907 74.1923 39.0287 74.317C39.2667 74.4416 39.55 74.504 39.8787 74.504C40.2187 74.504 40.553 74.4416 40.8817 74.317C41.2103 74.181 41.4767 74.0166 41.6807 73.824Z" fill="white"/>
<path d="M46.4954 63.59H48.7734V73.144C48.7734 73.552 48.8414 73.8296 48.9774 73.977C49.1134 74.113 49.3004 74.181 49.5384 74.181C49.7197 74.181 49.9067 74.1583 50.0994 74.113C50.2921 74.0676 50.4621 74.011 50.6094 73.943L50.9154 75.677C50.6094 75.8243 50.2524 75.9376 49.8444 76.017C49.4364 76.0963 49.0681 76.136 48.7394 76.136C48.0254 76.136 47.4701 75.949 47.0734 75.575C46.6881 75.1896 46.4954 74.6456 46.4954 73.943V63.59Z" fill="white"/>
<path d="M56.0559 76.17C55.3306 76.17 54.6789 76.051 54.1009 75.813C53.5229 75.5636 53.0299 75.2236 52.6219 74.793C52.2139 74.351 51.8966 73.8523 51.6699 73.297C51.4546 72.7416 51.3469 72.158 51.3469 71.546C51.3469 70.7073 51.5339 69.9423 51.9079 69.251C52.2932 68.5483 52.8372 67.9873 53.5399 67.568C54.2426 67.1486 55.0756 66.939 56.0389 66.939C57.0022 66.939 57.8296 67.1486 58.5209 67.568C59.2122 67.9873 59.7279 68.537 60.0679 69.217L57.8409 69.897C57.6482 69.5683 57.3932 69.319 57.0759 69.149C56.7586 68.9676 56.4072 68.877 56.0219 68.877C55.5912 68.877 55.1946 68.9903 54.8319 69.217C54.4806 69.4323 54.2029 69.744 53.9989 70.152C53.7949 70.5486 53.6929 71.0133 53.6929 71.546C53.6929 72.0673 53.7949 72.532 53.9989 72.94C54.2142 73.3366 54.4976 73.654 54.8489 73.892C55.2002 74.1186 55.5912 74.232 56.0219 74.232C56.2939 74.232 56.5489 74.1866 56.7869 74.096C57.0362 74.0053 57.2572 73.8806 57.4499 73.722C57.6426 73.5633 57.7842 73.382 57.8749 73.178L60.1019 73.858C59.8979 74.3 59.5976 74.6966 59.2009 75.048C58.8156 75.3993 58.3566 75.677 57.8239 75.881C57.3026 76.0736 56.7132 76.17 56.0559 76.17Z" fill="white"/>
<path d="M61.4526 76V73.552H63.3226V76H61.4526Z" fill="white"/>
</svg>
