<svg width="100" height="100" viewBox="0 0 100 100" fill="none" xmlns="http://www.w3.org/2000/svg">
<path d="M23 12C23 10.8954 23.8954 10 25 10H47C48.1046 10 49 10.8954 49 12V16H23V12Z" fill="#3B4BDD"/>
<path fill-rule="evenodd" clip-rule="evenodd" d="M17 27C17 23.134 20.134 20 24 20H55.9891C57.9112 20 59.7488 20.7904 61.0707 22.1858L75.0817 36.9751C76.3135 38.2753 77 39.9982 77 41.7893V86C77 89.866 73.866 93 70 93H24C20.134 93 17 89.866 17 86V27ZM48.2806 26.1851C49.283 25.2355 50.8653 25.2783 51.8149 26.2806L69.8149 45.2806C70.7645 46.283 70.7217 47.8653 69.7194 48.8149C68.717 49.7645 67.1347 49.7217 66.1851 48.7194L48.1851 29.7194C47.2355 28.717 47.2783 27.1347 48.2806 26.1851ZM53.1963 60.8131C52.3372 58.8236 51.2574 56.6666 50.1537 54.6009C49.5284 53.4307 48.8954 52.2897 48.2905 51.2252C46.6047 48.2583 42.3953 48.2583 40.7095 51.2252C39.9573 52.5489 39.1617 53.9908 38.3914 55.4603C37.2816 57.5777 36.2243 59.7525 35.4254 61.7138C34.5618 63.8341 34 65.705 34 66.9844C34 72.5159 38.701 77 44.5 77C50.299 77 55 72.5159 55 66.9844C55 65.5265 54.2706 63.3007 53.1963 60.8131Z" fill="#3B4BDD"/>
</svg>
