<svg width="100" height="100" viewBox="0 0 100 100" fill="none" xmlns="http://www.w3.org/2000/svg">
<circle cx="51" cy="27" r="9" fill="#3B4BDD"/>
<path d="M81 27C81 31.9706 76.9706 36 72 36C67.0294 36 51 31.9706 51 27C51 22.0294 67.0294 18 72 18C76.9706 18 81 22.0294 81 27Z" fill="#3B4BDD"/>
<path d="M50 27C50 31.9706 34.9706 36 30 36C25.0294 36 21 31.9706 21 27C21 22.0294 25.0294 18 30 18C34.9706 18 50 22.0294 50 27Z" fill="#3B4BDD"/>
<path fill-rule="evenodd" clip-rule="evenodd" d="M63.0416 45H70V68H63.9619C60.8437 71.6708 56.1938 74 51 74C45.8062 74 41.1563 71.6708 38.0381 68H34V81C34 81.5523 33.5523 82 33 82H13C12.4477 82 12 81.5523 12 81V61C12 52.1634 19.1634 45 28 45H38.9584C42.0364 41.9114 46.295 40 51 40C55.705 40 59.9636 41.9114 63.0416 45Z" fill="#3B4BDD"/>
<path d="M74 43C74 40.7909 75.7909 39 78 39H83V74H78C75.7909 74 74 72.2091 74 70V43Z" fill="#3B4BDD"/>
<path d="M83 35C83 32.7909 84.7909 31 87 31H95V82H87C84.7909 82 83 80.2091 83 78V35Z" fill="#3B4BDD"/>
</svg>
