<svg width="32" height="32" viewBox="0 0 32 32" fill="none" xmlns="http://www.w3.org/2000/svg">
<path d="M2.58152 20H2C0.895431 20 0 20.8954 0 22V29C0 30.1046 0.895431 31 2 31H30C31.1046 31 32 30.1046 32 29V22C32 20.8954 31.1046 20 30 20H29.4185C28.2317 22.9318 25.3574 25 22 25H10C6.64262 25 3.76829 22.9318 2.58152 20Z" fill="black"/>
<path d="M22 6C20.8954 6 20 6.89543 20 8V11H10C6.68629 11 4 13.6863 4 17C4 20.3137 6.68629 23 10 23H22C25.3137 23 28 20.3137 28 17C28 16.7855 27.9887 16.5736 27.9668 16.3649C27.9886 16.2466 28 16.1246 28 16V8C28 6.89543 27.1046 6 26 6H22Z" fill="#3B4BDD"/>
</svg>
