<svg width="32" height="32" viewBox="0 0 32 32" fill="none" xmlns="http://www.w3.org/2000/svg">
<path d="M6 14C6 12.8954 6.89543 12 8 12H24C25.1046 12 26 12.8954 26 14V22C26 23.1046 25.1046 24 24 24H8C6.89543 24 6 23.1046 6 22V14Z" fill="#3B4BDD"/>
<path d="M1 11C1 10.4477 1.44772 10 2 10H4C4.55228 10 5 10.4477 5 11V26C5 26.5523 4.55228 27 4 27H2C1.44772 27 1 26.5523 1 26V11Z" fill="#3B4BDD"/>
<path d="M27 11C27 10.4477 27.4477 10 28 10H30C30.5523 10 31 10.4477 31 11V26C31 26.5523 30.5523 27 30 27H28C27.4477 27 27 26.5523 27 26V11Z" fill="#3B4BDD"/>
</svg>
