<svg width="32" height="32" viewBox="0 0 32 32" fill="none" xmlns="http://www.w3.org/2000/svg">
<path d="M17 8C17.5523 8 18 8.44772 18 9C18 9.55228 17.5523 10 17 10H10C5.58172 10 2 13.5817 2 18C2 22.4183 5.58172 26 10 26H22C26.4183 26 30 22.4183 30 18V9C30 8.44772 30.4745 7.97928 30.959 8.24447C31.5793 8.58407 32 9.24291 32 10V26C32 27.1046 31.1046 28 30 28H2C0.895431 28 0 27.1046 0 26V10C0 8.89543 0.895431 8 2 8H17Z" fill="black"/>
<path d="M22 4C20.8954 4 20 4.89543 20 6V12H10C6.68629 12 4 14.6863 4 18C4 21.3137 6.68629 24 10 24H22C25.3137 24 28 21.3137 28 18V6C28 4.89543 27.1046 4 26 4H22Z" fill="#3B4BDD"/>
</svg>
