<svg width="100" height="100" viewBox="0 0 100 100" fill="none" xmlns="http://www.w3.org/2000/svg">
<rect x="15" y="84" width="76" height="8" rx="2" fill="#3B4BDD"/>
<path d="M71 45C69.6193 45 68.5 46.1193 68.5 47.5C68.5 48.8807 69.6193 50 71 50H80.5V93C80.5 94.3807 81.6193 95.5 83 95.5C84.3807 95.5 85.5 94.3807 85.5 93V47.5C85.5 46.1193 84.3807 45 83 45H71Z" fill="#3B4BDD" stroke="white" stroke-linecap="round" stroke-linejoin="round"/>
<rect x="17" y="28" width="58" height="8" rx="4" fill="#3B4BDD" stroke="white" stroke-width="2"/>
<path d="M22 24C22 21.7909 23.7909 20 26 20H66C68.2091 20 70 21.7909 70 24V28H22V24Z" fill="#3B4BDD" stroke="white" stroke-width="2"/>
<path d="M36 16C36 13.7909 37.7909 12 40 12H52C54.2091 12 56 13.7909 56 16V20H36V16Z" fill="#3B4BDD" stroke="white" stroke-width="2"/>
<path d="M21 36H71V41H65.5C64.3954 41 63.5 41.8954 63.5 43C63.5 44.1046 64.3954 45 65.5 45H71V50L67 50C65.8954 50 65 50.8954 65 52C65 53.1046 65.8954 54 67 54H71V59H65.5C64.3954 59 63.5 59.8954 63.5 61C63.5 62.1046 64.3954 63 65.5 63H71V68H67C65.8954 68 65 68.8954 65 70C65 71.1046 65.8954 72 67 72H71V78H65.5C64.3954 78 63.5 78.8954 63.5 80C63.5 81.1046 64.3954 82 65.5 82H71V86H21V82H27.5C28.6046 82 29.5 81.1046 29.5 80C29.5 78.8954 28.6046 78 27.5 78H21V72H26C27.1046 72 28 71.1046 28 70C28 68.8954 27.1046 68 26 68H21V63H27.5C28.6046 63 29.5 62.1046 29.5 61C29.5 59.8954 28.6046 59 27.5 59H21V54H26C27.1046 54 28 53.1046 28 52C28 50.8954 27.1046 50 26 50L21 50V45H27.5C28.6046 45 29.5 44.1046 29.5 43C29.5 41.8954 28.6046 41 27.5 41H21V36Z" fill="#3B4BDD"/>
<circle cx="46" cy="59" r="14" fill="white"/>
<path d="M49.5384 53.0007C50.3267 54.4761 51.098 56.0168 51.7117 57.4379C52.479 59.2148 53 60.8047 53 61.846C53 65.797 49.6421 69 45.5 69C41.3579 69 38 65.797 38 61.846C38 60.9321 38.4013 59.5958 39.0181 58.0813C39.5888 56.6803 40.344 55.1269 41.1367 53.6145C41.6869 52.5649 42.2552 51.5349 42.7925 50.5894C43.9967 48.4702 47.0033 48.4702 48.2075 50.5894C48.6396 51.3498 49.0917 52.1648 49.5384 53.0007Z" fill="#3B4BDD"/>
</svg>
