<svg width="100" height="100" viewBox="0 0 100 100" fill="none" xmlns="http://www.w3.org/2000/svg">
<path d="M28.0001 44.9999C28.0001 44.9999 36.2102 45.1452 41.0002 46.9999C46.6096 49.1718 47.6456 54.6185 53.5 56C60.7838 57.7189 72 51 72 51L32.5391 90.4115C30.9767 91.9719 28.4454 91.9711 26.884 90.4097L7.90079 71.4265C6.33869 69.8644 6.33869 67.3317 7.90079 65.7696L20.492 53.1785L28.0001 44.9999Z" fill="#3B4BDD"/>
<path d="M23.8329 54.8608L23.8364 54.8643L43.6354 74.6633L43.639 74.6668L43.6681 74.6957C44.2218 75.2832 44.2111 76.2091 43.6362 76.7841L32.3225 88.0978C31.3462 89.0741 29.7632 89.0741 28.7869 88.0978L10.4022 69.713C9.42584 68.7367 9.42584 67.1538 10.4022 66.1775L21.7159 54.8638C22.2908 54.2888 23.2167 54.2782 23.8043 54.8318L23.8329 54.8608ZM47.1753 71.1308L47.1717 71.1272L27.3727 51.3282L27.3692 51.3247L27.34 51.2959C26.7864 50.7083 26.797 49.7824 27.372 49.2074L28.7862 47.7932C29.3622 47.2172 30.2904 47.2076 30.8779 47.7644L30.9036 47.7903L30.9067 47.7935L50.7057 67.5925L50.7089 67.5957L50.7351 67.6216C51.2921 68.2091 51.2826 69.1375 50.7065 69.7135L49.2923 71.1277C48.7173 71.7027 47.7915 71.7133 47.2039 71.1597L47.1753 71.1308ZM54.2452 64.0598L54.242 64.0567L34.443 44.2577L34.4398 44.2545L34.4136 44.2285C33.8567 43.641 33.8662 42.7127 34.4423 42.1366L35.8565 40.7224C36.4423 40.1366 37.392 40.1366 37.9778 40.7224L57.7768 60.5214C58.3626 61.1072 58.3626 62.0569 57.7768 62.6427L56.3626 64.0569C55.7865 64.633 54.8583 64.6426 54.2708 64.0857L54.2452 64.0598ZM74.0407 15.9735C71.5023 13.4351 67.3867 13.4351 64.8483 15.9735L63.4341 17.3877C62.0112 18.8106 61.3868 20.7285 61.5581 22.5847L48.8397 23.563C46.8166 23.7187 44.916 24.5929 43.4812 26.0276L37.9796 31.5292C36.9129 32.5959 36.2945 33.9423 36.1243 35.3314C34.7347 35.5014 33.3879 36.1199 32.321 37.1869L30.9067 38.6011C29.8403 39.6676 29.2218 41.0137 29.0515 42.4025C27.6629 42.573 26.317 43.1913 25.2506 44.2577L23.8364 45.6719C22.77 46.7383 22.1516 48.0843 21.9812 49.4731C20.5926 49.6435 19.2467 50.2619 18.1803 51.3282L6.86662 62.642C3.93769 65.5709 3.93769 70.3196 6.86662 73.2486L25.2514 91.6333C28.1803 94.5623 32.9291 94.5623 35.858 91.6333L47.1717 80.3196C48.2381 79.2532 48.8565 77.9072 49.0269 76.5185C50.4156 76.348 51.7615 75.7296 52.8278 74.6633L54.242 73.2491C55.3085 72.1826 55.9269 70.8365 56.0973 69.4476C57.4859 69.2772 58.8318 68.6588 59.8981 67.5925L61.3123 66.1783C62.379 65.1116 62.9975 63.7652 63.1677 62.3761C64.5572 62.2061 65.904 61.5876 66.971 60.5206L72.4726 55.019C73.9073 53.5842 74.7815 51.6836 74.9371 49.6605L75.9155 36.9415C77.7715 37.1125 79.6891 36.4881 81.1118 35.0654L82.526 33.6512C85.0644 31.1128 85.0644 26.9972 82.526 24.4588L74.0407 15.9735ZM75.5026 31.5756L66.9239 22.9969C66.3843 22.4088 66.3995 21.4934 66.9696 20.9233L68.3838 19.509C68.9696 18.9233 69.9194 18.9233 70.5051 19.509L78.9904 27.9943C79.5762 28.5801 79.5762 29.5299 78.9904 30.1156L77.5762 31.5299C77.0061 32.1 76.0907 32.1152 75.5026 31.5756ZM49.2232 28.5483L64.2466 27.3927L71.1075 34.2535L69.9519 49.277C69.8878 50.11 69.5278 50.8927 68.9371 51.4834L63.4354 56.9851C62.8497 57.5708 61.8999 57.5708 61.3141 56.9851L41.5151 37.1861C40.9293 36.6003 40.9293 35.6505 41.5151 35.0648L47.0168 29.5631C47.6075 28.9724 48.3902 28.6124 49.2232 28.5483Z" fill="#3B4BDD" stroke="white" stroke-width="2"/>
<path d="M48.5859 35.0652L57.0712 43.5505" stroke="#3B4BDD" stroke-width="3" stroke-linecap="round"/>
<path d="M60.6074 47.0857L60.2539 46.7321" stroke="#3B4BDD" stroke-width="3" stroke-linecap="round"/>
<path d="M89 50C89 53.866 86.3137 57 83 57C79.6863 57 77 53.866 77 50C77 45 80.8571 39 83 39C85.1429 39 89 45 89 50Z" fill="#3B4BDD"/>
<path d="M80 51.5L80 51" stroke="white" stroke-width="3" stroke-linecap="round"/>
</svg>
