<svg width="100" height="100" viewBox="0 0 100 100" fill="none" xmlns="http://www.w3.org/2000/svg">
<path d="M23 26C23 26 32.5 32 50 32C67.5 32 77 26 77 26V83.5C77 83.5 70 89 50 89C30 89 23 83.5 23 83.5V26Z" fill="#3B4BDD"/>
<ellipse cx="50" cy="22.5" rx="29" ry="8.5" fill="#3B4BDD"/>
<path d="M24.7029 23.7537C23.6195 23.003 23.5115 22.5532 23.5011 22.5C23.5115 22.4468 23.6195 21.997 24.7029 21.2463C25.8609 20.4438 27.6997 19.6206 30.1971 18.8887C35.1587 17.4344 42.1608 16.5 50 16.5C57.8392 16.5 64.8413 17.4344 69.8029 18.8887C72.3003 19.6206 74.1391 20.4438 75.2971 21.2463C76.3805 21.997 76.4885 22.4468 76.4989 22.5C76.4885 22.5532 76.3805 23.003 75.2971 23.7537C74.1391 24.5562 72.3003 25.3794 69.8029 26.1113C64.8413 27.5656 57.8392 28.5 50 28.5C42.1608 28.5 35.1587 27.5656 30.1971 26.1113C27.6997 25.3794 25.8609 24.5562 24.7029 23.7537ZM50 11.5C41.8229 11.5 34.325 12.4684 28.7907 14.0905C26.04 14.8968 23.632 15.9052 21.855 17.1366C20.1559 18.314 18.5 20.0855 18.5 22.5C18.5 24.9145 20.1559 26.686 21.855 27.8634C23.632 29.0948 26.04 30.1032 28.7907 30.9095C34.325 32.5316 41.8229 33.5 50 33.5C58.1771 33.5 65.675 32.5316 71.2093 30.9095C73.96 30.1032 76.368 29.0948 78.145 27.8634C79.8441 26.686 81.5 24.9145 81.5 22.5C81.5 20.0855 79.8441 18.314 78.145 17.1366C76.368 15.9052 73.96 14.8968 71.2093 14.0905C65.675 12.4684 58.1771 11.5 50 11.5Z" fill="#3B4BDD" stroke="white" stroke-width="2"/>
<path d="M24 47.2158C24 46.8341 23.7827 46.4856 23.4398 46.3177C23.097 46.1498 22.6885 46.1918 22.3869 46.4258C20.8669 47.6054 19.5 49.2921 19.5 51.5C19.5 53.874 21.0772 55.6443 22.7427 56.8396C24.4706 58.0798 26.8096 59.0935 29.4748 59.9026C34.8365 61.5302 42.0926 62.5 50 62.5C57.9074 62.5 65.1635 61.5302 70.5252 59.9026C73.1904 59.0935 75.5294 58.0798 77.2573 56.8396C78.9228 55.6443 80.5 53.874 80.5 51.5C80.5 49.2921 79.1331 47.6054 77.6131 46.4258C77.3115 46.1918 76.903 46.1498 76.5602 46.3177C76.2173 46.4856 76 46.8341 76 47.2158V51.3679C75.9548 51.4312 75.8731 51.5278 75.7386 51.6592C75.4332 51.9575 74.9636 52.3313 74.3419 52.7775C73.2362 53.5711 71.4747 54.3891 69.0728 55.1182C64.3004 56.5669 57.5566 57.5 50 57.5C42.4434 57.5 35.6996 56.5669 30.9272 55.1182C28.5253 54.3891 26.7638 53.5711 25.6581 52.7775C25.0364 52.3313 24.5668 51.9575 24.2614 51.6592C24.1269 51.5278 24.0452 51.4312 24 51.3679V47.2158ZM76.0354 51.3115C76.0356 51.3114 76.0344 51.3141 76.0314 51.3196C76.0337 51.3143 76.0352 51.3115 76.0354 51.3115ZM23.9646 51.3115C23.9648 51.3115 23.9663 51.3143 23.9687 51.3196C23.9656 51.3141 23.9644 51.3114 23.9646 51.3115Z" fill="#3B4BDD" stroke="white" stroke-width="2" stroke-linejoin="round"/>
<path d="M24 76C24 75.6183 23.7827 75.2698 23.4398 75.1019C23.097 74.934 22.6885 74.9759 22.3869 75.21C20.8669 76.3896 19.5 78.0763 19.5 80.2842C19.5 82.6582 21.0772 84.4285 22.7427 85.6238C24.4706 86.864 26.8096 87.8777 29.4748 88.6868C34.8365 90.3144 42.0926 91.2842 50 91.2842C57.9074 91.2842 65.1635 90.3144 70.5252 88.6868C73.1904 87.8777 75.5294 86.864 77.2573 85.6238C78.9228 84.4285 80.5 82.6582 80.5 80.2842C80.5 78.0763 79.1331 76.3896 77.6131 75.21C77.3115 74.9759 76.903 74.934 76.5602 75.1019C76.2173 75.2698 76 75.6183 76 76V80.1521C75.9548 80.2154 75.8731 80.312 75.7386 80.4434C75.4332 80.7417 74.9636 81.1155 74.3419 81.5617C73.2362 82.3553 71.4747 83.1732 69.0728 83.9024C64.3004 85.3511 57.5566 86.2842 50 86.2842C42.4434 86.2842 35.6996 85.3511 30.9272 83.9024C28.5253 83.1732 26.7638 82.3553 25.6581 81.5617C25.0364 81.1155 24.5668 80.7417 24.2614 80.4434C24.1269 80.312 24.0452 80.2154 24 80.1521V76ZM76.0354 80.0956C76.0356 80.0956 76.0344 80.0983 76.0314 80.1038C76.0337 80.0984 76.0352 80.0957 76.0354 80.0956ZM23.9646 80.0956C23.9648 80.0957 23.9663 80.0984 23.9687 80.1038C23.9656 80.0983 23.9644 80.0956 23.9646 80.0956Z" fill="#3B4BDD" stroke="white" stroke-width="2" stroke-linejoin="round"/>
<ellipse cx="38" cy="21.5" rx="5" ry="1.5" fill="white"/>
<path d="M56.1537 50.6009C57.2574 52.6666 58.3372 54.8236 59.1963 56.8131C60.2706 59.3007 61 61.5265 61 62.9844C61 68.5159 56.299 73 50.5 73C44.701 73 40 68.5159 40 62.9844C40 61.705 40.5618 59.8341 41.4254 57.7138C42.2243 55.7525 43.2816 53.5777 44.3914 51.4603C45.1617 49.9908 45.9573 48.5489 46.7095 47.2252C48.3953 44.2583 52.6047 44.2583 54.2905 47.2252C54.8954 48.2897 55.5284 49.4307 56.1537 50.6009Z" fill="white"/>
</svg>
