<svg width="32" height="32" viewBox="0 0 32 32" fill="none" xmlns="http://www.w3.org/2000/svg">
<path d="M16 2C13.7909 2 12 3.79086 12 6V8H6C4.89543 8 4 8.89543 4 10V13C4 13.5523 4.44772 14 5 14H6C8.20914 14 10 15.7909 10 18C10 20.2091 8.20914 22 6 22H5C4.44772 22 4 22.4477 4 23V26C4 27.1046 4.89543 28 6 28H26C27.1046 28 28 27.1046 28 26V23C28 22.4477 27.5523 22 27 22H26C23.7909 22 22 20.2091 22 18C22 15.7909 23.7909 14 26 14H27C27.5523 14 28 13.5523 28 13V10C28 8.89543 27.1046 8 26 8H20V6C20 3.79086 18.2091 2 16 2Z" fill="#3B4BDD"/>
</svg>
