<svg width="32" height="32" viewBox="0 0 32 32" fill="none" xmlns="http://www.w3.org/2000/svg">
<g clip-path="url(#clip0_1304_1393)">
<path d="M11 3C11 1.89543 11.8954 1 13 1H19C20.1046 1 21 1.89543 21 3V5H24C25.1046 5 26 5.89543 26 7V11C26 11.3281 25.921 11.6377 25.781 11.9109C25.5108 12.4381 24.8182 12.2431 24.5062 11.7395C22.7431 8.89475 19.5928 7 16 7C12.4072 7 9.25687 8.89475 7.49383 11.7395C7.18177 12.2431 6.48917 12.4381 6.219 11.9109C6.07899 11.6377 6 11.3281 6 11V7C6 5.89543 6.89543 5 8 5H11V3Z" fill="#3B4BDD"/>
<path d="M16 8C19.5333 8 22.5911 10.0361 24.064 12.999C24.6631 14.2042 25 15.5628 25 17C25 19.7959 23.7251 22.2941 21.7248 23.9448C21.4073 24.2069 20.9382 24.0714 20.7647 23.6981C20.5663 23.2711 20.3544 22.8388 20.1366 22.4107C19.9195 21.9838 20.0336 21.4675 20.3625 21.1193C21.3776 20.0447 22 18.595 22 17C22 13.6863 19.3137 11 16 11C12.6863 11 10 13.6863 10 17C10 18.8721 10.8574 20.544 12.201 21.6443C12.6123 21.9812 12.7867 22.5548 12.553 23.0323C12.4138 23.3167 12.2788 23.6008 12.1502 23.8823C11.9019 24.4256 11.2418 24.664 10.7565 24.3156C8.48173 22.6823 7 20.0142 7 17C7 15.5628 7.33689 14.2042 7.93602 12.999C9.40891 10.0361 12.4667 8 16 8Z" fill="#3B4BDD"/>
<path d="M18.923 22.2411C19.396 23.141 19.8588 24.0808 20.227 24.9476C20.6874 26.0314 21 27.0012 21 27.6364C21 30.0463 18.9853 32 16.5 32C14.0147 32 12 30.0463 12 27.6364C12 27.0789 12.2408 26.2638 12.6109 25.3401C12.9533 24.4855 13.4064 23.538 13.882 22.6155C14.2122 21.9753 14.5531 21.3471 14.8755 20.7703C15.598 19.4777 17.402 19.4777 18.1245 20.7703C18.3838 21.2341 18.655 21.7312 18.923 22.2411Z" fill="#3B4BDD"/>
</g>
<defs>
<clipPath id="clip0_1304_1393">
<rect width="32" height="32" fill="white"/>
</clipPath>
</defs>
</svg>
