<svg xmlns="http://www.w3.org/2000/svg" width="48" height="48" fill="none"><path fill="#fff" fill-rule="evenodd" d="M15.536 15.61c1.304-1.303 2.902-2.156 4.546-2.427 1.439-.236 6.193-.246 7.643-.016 3.36.533 6.122 3.04 7.011 6.363.365 1.36.347 6.378-.026 7.805-.565 2.157-1.779 3.762-3.871 5.12-1.49.968-3.025 1.284-6.23 1.284h-2.577s-1.26-.094-2.636-.418L16 34l1.032-1.548c-.934-.589-2.454-2.182-2.986-3.155-.823-1.503-1.048-2.782-1.046-5.934.003-4.194.502-5.718 2.536-7.752Zm15.226 7.165c.319-2.364-1.086-4.842-3.3-5.82-1.551-.686-3.175-.75-3.054-.12.043.226.333.338 1.082.42 2.677.289 4.54 2.415 4.453 5.085-.022.662.012 1.255.075 1.318.281.28.645-.152.744-.883Zm-8.755-.998c1.017-.642.91-1.258-.476-2.733-1.476-1.571-1.961-1.644-3.224-.486-1.13 1.035-1.35 1.801-.935 3.24 1.125 3.896 6.462 8.798 9.63 8.846.869.013.974-.04 1.94-.989 1.35-1.326 1.335-1.6-.162-3.194-.968-1.03-1.278-1.252-1.76-1.252-.322 0-.693.134-.826.296-1.119 1.378-1.497 1.466-2.789.651a5.392 5.392 0 0 1-2.105-2.479c-.35-.83-.153-1.357.707-1.9Zm7.012-.694c-.286-1.183-1.608-2.598-2.714-2.903-.982-.271-1.661-.253-1.915.052-.307.368.076.605 1.166.721 1.533.164 2.502 1.152 2.699 2.752.088.719.209 1.013.433 1.056.46.088.594-.588.33-1.677Zm-1.523.787c.072-.664-.606-1.646-1.354-1.956-.701-.292-1.083-.335-1.275-.144-.296.295-.073.575.62.782.742.22 1.306.913 1.306 1.602 0 .497.646.235.703-.284Z" clip-rule="evenodd"/></svg>