<svg xmlns="http://www.w3.org/2000/svg" width="48" height="48" fill="none"><path fill="#fff" d="M28.017 14h-8.07A5.954 5.954 0 0 0 14 19.948v8.07a5.954 5.954 0 0 0 5.948 5.947h8.07a5.954 5.954 0 0 0 5.947-5.948v-8.07A5.954 5.954 0 0 0 28.017 14Zm3.94 14.017a3.94 3.94 0 0 1-3.94 3.94h-8.07a3.94 3.94 0 0 1-3.939-3.94v-8.07a3.94 3.94 0 0 1 3.94-3.939h8.07a3.94 3.94 0 0 1 3.939 3.94v8.07-.001Z"/><path fill="#fff" d="M23.982 18.82a5.17 5.17 0 0 0-5.162 5.162 5.17 5.17 0 0 0 5.163 5.164 5.17 5.17 0 0 0 5.164-5.164 5.17 5.17 0 0 0-5.165-5.162Zm0 8.318a3.155 3.155 0 1 1 0-6.31 3.155 3.155 0 0 1 0 6.31ZM29.156 20.095a1.237 1.237 0 1 0 0-2.474 1.237 1.237 0 0 0 0 2.474Z"/></svg>