<svg width="48" height="48" viewBox="0 0 48 48" fill="none" xmlns="http://www.w3.org/2000/svg">
<path d="M28.017 14H19.947C18.3702 14.0019 16.8584 14.6291 15.7435 15.7442C14.6286 16.8593 14.0016 18.3712 14 19.948L14 28.018C14.0019 29.5948 14.6291 31.1066 15.7442 32.2215C16.8593 33.3364 18.3712 33.9634 19.948 33.965H28.018C29.5948 33.9631 31.1066 33.3359 32.2215 32.2208C33.3364 31.1057 33.9634 29.5938 33.965 28.017V19.947C33.9631 18.3702 33.3359 16.8584 32.2208 15.7435C31.1057 14.6286 29.5938 14.0016 28.017 14V14ZM31.957 28.017C31.957 28.5344 31.8551 29.0468 31.6571 29.5248C31.4591 30.0028 31.1689 30.4371 30.803 30.803C30.4371 31.1689 30.0028 31.4591 29.5248 31.6571C29.0468 31.8551 28.5344 31.957 28.017 31.957H19.947C18.9022 31.9567 17.9003 31.5415 17.1616 30.8026C16.423 30.0638 16.008 29.0618 16.008 28.017V19.947C16.0083 18.9022 16.4235 17.9003 17.1624 17.1616C17.9012 16.423 18.9032 16.008 19.948 16.008H28.018C29.0628 16.0083 30.0647 16.4235 30.8034 17.1624C31.542 17.9012 31.957 18.9032 31.957 19.948V28.018V28.017Z" fill="white"/>
<path d="M23.9818 18.8193C22.6133 18.8215 21.3014 19.3661 20.3337 20.3339C19.3661 21.3018 18.8217 22.6138 18.8198 23.9823C18.8214 25.3513 19.3658 26.6637 20.3337 27.6317C21.3016 28.5998 22.6139 29.1445 23.9828 29.1463C25.3519 29.1447 26.6645 28.6002 27.6326 27.6321C28.6007 26.664 29.1452 25.3514 29.1468 23.9823C29.1447 22.6134 28.5998 21.3012 27.6315 20.3335C26.6633 19.3658 25.3507 18.8217 23.9818 18.8203V18.8193ZM23.9818 27.1383C23.1451 27.1383 22.3426 26.8059 21.7509 26.2143C21.1592 25.6226 20.8268 24.8201 20.8268 23.9833C20.8268 23.1466 21.1592 22.3441 21.7509 21.7524C22.3426 21.1607 23.1451 20.8283 23.9818 20.8283C24.8186 20.8283 25.6211 21.1607 26.2127 21.7524C26.8044 22.3441 27.1368 23.1466 27.1368 23.9833C27.1368 24.8201 26.8044 25.6226 26.2127 26.2143C25.6211 26.8059 24.8186 27.1383 23.9818 27.1383Z" fill="white"/>
<path d="M29.1559 20.0951C29.8391 20.0951 30.3929 19.5413 30.3929 18.8581C30.3929 18.1749 29.8391 17.6211 29.1559 17.6211C28.4728 17.6211 27.9189 18.1749 27.9189 18.8581C27.9189 19.5413 28.4728 20.0951 29.1559 20.0951Z" fill="white"/>
</svg>
