<svg xmlns="http://www.w3.org/2000/svg" width="48" height="48" fill="none"><path fill="#fff" fill-rule="evenodd" d="M14.033 23.929c-.016-5.277 4.173-9.667 9.483-9.917 5.835-.276 10.634 4.429 10.452 10.204-.17 5.385-4.693 9.663-10.12 9.58a9.982 9.982 0 0 1-4.284-1.032l-5.034 1.184a.387.387 0 0 1-.47-.453l1.058-5.101a9.797 9.797 0 0 1-1.085-4.465Zm12.878 1.566 1.93.55a.712.712 0 0 1 .409 1.072c-.377.591-.977 1.314-1.727 1.494-1.321.319-3.352.008-5.887-2.341-2.194-2.034-2.774-3.727-2.637-5.07.077-.763.717-1.45 1.256-1.903a.723.723 0 0 1 1.125.256l.812 1.824a.71.71 0 0 1-.09.726l-.411.53a.694.694 0 0 0-.056.774c.49.849 2.413 2.545 3.326 2.912a.706.706 0 0 0 .765-.16l.472-.478a.723.723 0 0 1 .713-.186Z" clip-rule="evenodd"/></svg>