<svg width="308" height="83" fill="none" xmlns="http://www.w3.org/2000/svg"><path fill-rule="evenodd" clip-rule="evenodd" d="M68.16 79H43.438C22.65 79 5.798 62.21 5.798 41.5S22.65 4 43.439 4H68.16C88.947 4 105.8 20.79 105.8 41.5S88.947 79 68.16 79ZM43.438 13.023c-15.786 0-28.583 12.75-28.583 28.477 0 13.492 9.418 24.793 22.062 27.733a28.753 28.753 0 0 1-7.279-19.156c0-15.974 12.997-28.923 29.03-28.923h29.49a28.544 28.544 0 0 0-19.998-8.13H43.438ZM54.778 69.6c-9.169-1.804-16.083-9.859-16.083-19.523 0-10.99 8.942-19.9 19.973-19.9h35.726a28.19 28.19 0 0 1 1.992 6.811H72.354c-11.644 0-21.083 9.405-21.083 21.006 0 4.29 1.29 8.28 3.507 11.606Zm41.608-23.588c-2.04 12.765-12.593 22.702-25.68 23.853-5.862-.8-10.379-5.81-10.379-11.87 0-6.619 5.385-11.983 12.027-11.983h24.032Z" fill="#3B4BDD"/><path d="M131.861 29.168c0 1.719-.348 3.223-1.043 4.512a7.364 7.364 0 0 1-2.918 2.988c-1.25.71-2.719 1.066-4.406 1.066-1.727 0-3.211-.343-4.453-1.03a7.023 7.023 0 0 1-2.86-2.966c-.664-1.281-.996-2.804-.996-4.57 0-1.766.328-3.277.984-4.535a6.79 6.79 0 0 1 2.86-2.883c1.25-.672 2.746-1.008 4.488-1.008 1.75 0 3.246.34 4.488 1.02a6.855 6.855 0 0 1 2.86 2.894c.664 1.258.996 2.762.996 4.512Zm-3.528 0c0-1.781-.421-3.176-1.265-4.184-.844-1.015-2.027-1.523-3.551-1.523-1.547 0-2.742.504-3.586 1.512-.844 1-1.265 2.398-1.265 4.195 0 1.203.195 2.242.585 3.117.391.875.946 1.55 1.665 2.028.726.468 1.585.703 2.578.703 1.547 0 2.738-.508 3.574-1.524.844-1.015 1.265-2.457 1.265-4.324ZM149.028 26.215c0 1.07-.246 2.02-.738 2.848-.485.82-1.176 1.464-2.075 1.933-.898.461-1.968.692-3.211.692h-4.101V37.5h-3.457V20.988h7.418c1.976 0 3.496.457 4.558 1.371 1.071.907 1.606 2.192 1.606 3.856Zm-3.481.058c0-1.734-1.023-2.601-3.07-2.601h-3.574v5.355h3.668c.953 0 1.687-.234 2.203-.703.516-.476.773-1.16.773-2.05ZM173.32 20.988V37.5h-20.906V20.988h3.339v13.653h5.438V20.988h3.34v13.653h5.449V20.988h3.34ZM181.405 33.281 179.94 37.5h-3.457l6.023-16.512h4.079l6 16.512h-3.422l-1.465-4.219h-6.293Zm3.141-9.75a18.57 18.57 0 0 1-.329 1.125c-.14.438-.242.746-.304.926l-1.735 5.098h4.746l-1.781-5.203c-.109-.32-.211-.645-.304-.973a38.551 38.551 0 0 0-.293-.973ZM123.517 59.016c2.094 0 3.543-1.047 4.348-3.141l3.011 1.137c-.648 1.593-1.601 2.781-2.859 3.562-1.25.774-2.75 1.16-4.5 1.16-1.766 0-3.269-.336-4.512-1.007a6.812 6.812 0 0 1-2.847-2.942c-.649-1.281-.973-2.82-.973-4.617 0-1.813.313-3.344.938-4.594a6.371 6.371 0 0 1 2.765-2.847c1.219-.657 2.711-.985 4.477-.985 1.937 0 3.515.39 4.734 1.172 1.219.773 2.074 1.914 2.567 3.422l-3.047.832c-.258-.828-.766-1.484-1.524-1.969-.75-.492-1.637-.738-2.66-.738-1.562 0-2.75.484-3.562 1.453-.805.969-1.207 2.387-1.207 4.254 0 1.266.183 2.332.55 3.2.375.866.922 1.526 1.641 1.98.726.445 1.613.668 2.66.668ZM140.977 47.66V61.5h-3.457V47.66h-5.332v-2.672h14.133v2.672h-5.344ZM151.546 57.281l-1.464 4.219h-3.457l6.023-16.512h4.078l6 16.512h-3.422l-1.465-4.219h-6.293Zm3.141-9.75c-.078.313-.187.688-.328 1.125-.141.438-.242.746-.305.926l-1.734 5.098h4.746l-1.781-5.203c-.11-.32-.211-.645-.305-.973a34.816 34.816 0 0 0-.293-.973ZM169.967 58.219c-.398 1.25-.902 2.14-1.511 2.672-.61.53-1.465.797-2.567.797-.531 0-.918-.067-1.16-.2v-2.894c.102.054.27.082.504.082.227 0 .43-.067.609-.2.18-.14.344-.347.493-.62.132-.25.257-.563.375-.938.125-.383.246-.836.363-1.36.07-.32.144-.699.223-1.136.078-.438.175-1.027.292-1.77.125-.75.278-1.738.458-2.965.179-1.226.402-2.792.667-4.699h11.157V61.5h-3.328V47.848h-4.77l-.574 4.078c-.422 2.922-.832 5.02-1.231 6.293ZM198.841 56.45c0 .991-.246 1.87-.738 2.636-.492.758-1.195 1.352-2.109 1.781-.914.422-2 .633-3.258.633h-8.684V44.988h3.457v6.575h5.602c1.836 0 3.25.43 4.242 1.289.992.851 1.488 2.05 1.488 3.597Zm-3.492.046c0-.727-.273-1.285-.82-1.676-.539-.398-1.348-.597-2.426-.597h-4.594v4.582h4.664c2.118 0 3.176-.77 3.176-2.309ZM209.364 59.016c2.094 0 3.543-1.047 4.348-3.141l3.011 1.137c-.648 1.593-1.601 2.781-2.859 3.562-1.25.774-2.75 1.16-4.5 1.16-1.766 0-3.27-.336-4.512-1.007a6.812 6.812 0 0 1-2.847-2.942c-.649-1.281-.973-2.82-.973-4.617 0-1.813.312-3.344.937-4.594a6.373 6.373 0 0 1 2.766-2.847c1.219-.657 2.711-.985 4.477-.985 1.937 0 3.515.39 4.734 1.172 1.219.773 2.074 1.914 2.566 3.422l-3.046.832c-.258-.828-.766-1.484-1.524-1.969-.75-.492-1.637-.738-2.66-.738-1.563 0-2.75.484-3.563 1.453-.804.969-1.207 2.387-1.207 4.254 0 1.266.184 2.332.551 3.2.375.866.922 1.526 1.641 1.98.726.445 1.613.668 2.66.668ZM233.422 58.828V61.5h-13.465V44.988h12.984v2.672h-9.527v4.149h8.812v2.672h-8.812v4.347h10.008ZM250.507 50.215c0 1.07-.246 2.02-.739 2.847-.484.82-1.175 1.465-2.074 1.934-.898.461-1.969.691-3.211.691h-4.101V61.5h-3.457V44.988h7.418c1.976 0 3.496.457 4.558 1.371 1.07.907 1.606 2.192 1.606 3.856Zm-3.481.058c0-1.734-1.023-2.601-3.07-2.601h-3.574v5.355h3.668c.953 0 1.687-.234 2.203-.703.515-.476.773-1.16.773-2.05ZM268.529 56.79c0 1.5-.562 2.66-1.687 3.48-1.125.82-2.688 1.23-4.688 1.23h-8.262V44.988h7.559c2.016 0 3.539.352 4.57 1.055 1.039.695 1.559 1.727 1.559 3.094 0 .937-.262 1.73-.785 2.379-.516.64-1.305 1.074-2.367 1.3 1.335.157 2.351.578 3.046 1.266.704.68 1.055 1.582 1.055 2.707Zm-4.43-7.184c0-.743-.238-1.27-.714-1.583-.469-.312-1.168-.468-2.098-.468h-3.938v4.09h3.961c.977 0 1.684-.168 2.121-.504.446-.344.668-.856.668-1.535Zm.961 6.913c0-1.546-1.109-2.32-3.328-2.32h-4.383v4.735h4.512c1.11 0 1.918-.2 2.426-.598.516-.406.773-1.012.773-1.816ZM283.259 48.785 276.122 61.5h-3.938V44.988h3.071v9.598c0 .414-.008.89-.024 1.43a93.79 93.79 0 0 1-.07 1.793l7.184-12.82h3.89V61.5h-3.07v-9.738c0-.305.008-.703.023-1.196.016-.5.039-1.093.071-1.78ZM298.117 59.016c2.094 0 3.543-1.047 4.348-3.141l3.011 1.137c-.648 1.593-1.601 2.781-2.859 3.562-1.25.774-2.75 1.16-4.5 1.16-1.766 0-3.269-.336-4.512-1.007a6.812 6.812 0 0 1-2.847-2.942c-.649-1.281-.973-2.82-.973-4.617 0-1.813.313-3.344.938-4.594a6.371 6.371 0 0 1 2.765-2.847c1.219-.657 2.711-.985 4.477-.985 1.937 0 3.515.39 4.734 1.172 1.219.773 2.074 1.914 2.567 3.422l-3.047.832c-.258-.828-.766-1.484-1.524-1.969-.75-.492-1.636-.738-2.66-.738-1.562 0-2.75.484-3.562 1.453-.805.969-1.207 2.387-1.207 4.254 0 1.266.183 2.332.55 3.2.375.866.922 1.526 1.641 1.98.727.445 1.613.668 2.66.668Z" fill="#fff"/></svg>