<svg width="175" height="44" fill="none" xmlns="http://www.w3.org/2000/svg"><path fill-rule="evenodd" clip-rule="evenodd" d="M36.81 41.465c-.407.026-.818.039-1.231.039h-12.7C12.107 41.504 3.375 32.772 3.375 22c0-10.772 8.732-19.504 19.504-19.504h12.7c10.772 0 19.504 8.732 19.504 19.504 0 9.69-7.067 17.73-16.329 19.247v.257h-1.02c-.311 0-.62-.013-.924-.038ZM22.88 7.486C14.863 7.485 8.364 13.984 8.364 22c0 6.694 4.531 12.329 10.694 14.006a15.02 15.02 0 0 1-3.436-9.584c0-8.329 6.752-15.081 15.081-15.081h14.728a14.463 14.463 0 0 0-9.852-3.856h-12.7Zm5.466 28.752a10.947 10.947 0 0 1-1.61-5.733c0-6.074 4.924-10.999 10.999-10.999H49.88a14.41 14.41 0 0 0-.936-3.175H30.703c-5.574 0-10.092 4.519-10.092 10.092 0 4.762 3.298 8.753 7.734 9.815Zm8.547.219a6.011 6.011 0 0 1 .842-11.961H49.88C48.77 30.9 43.46 35.867 36.89 36.455Z" fill="#0554F2"/><path d="M71.66 14.96c0 1.04-.21 1.95-.631 2.73a4.452 4.452 0 0 1-1.765 1.807c-.756.43-1.644.645-2.664.645-1.045 0-1.942-.208-2.694-.624a4.25 4.25 0 0 1-1.729-1.793c-.401-.775-.602-1.696-.602-2.764 0-1.068.198-1.982.595-2.743a4.105 4.105 0 0 1 1.73-1.743c.755-.406 1.66-.61 2.714-.61 1.058 0 1.963.206 2.714.617.751.406 1.328.99 1.73 1.75.4.761.602 1.67.602 2.729Zm-2.133 0c0-1.076-.256-1.92-.766-2.53-.51-.613-1.226-.92-2.147-.92-.936 0-1.659.304-2.169.914-.51.604-.765 1.45-.765 2.537 0 .728.118 1.356.354 1.885.236.53.572.938 1.006 1.226.44.284.96.425 1.56.425.935 0 1.656-.307 2.161-.92.51-.615.766-1.487.766-2.616ZM81.824 13.175c0 .647-.149 1.221-.446 1.722a3.064 3.064 0 0 1-1.255 1.17c-.543.278-1.19.418-1.942.418h-2.48V20h-2.09v-9.986h4.485c1.196 0 2.115.277 2.757.83.647.547.971 1.325.971 2.331Zm-2.105.035c0-1.049-.619-1.573-1.857-1.573h-2.161v3.239h2.218c.577 0 1.02-.142 1.332-.425.312-.289.468-.702.468-1.24ZM96.297 10.014V20H83.654v-9.986h2.02v8.257h3.288v-8.257h2.02v8.257h3.296v-8.257h2.02ZM100.969 17.448 100.083 20h-2.09l3.642-9.986h2.467L107.73 20h-2.069l-.886-2.552h-3.806Zm1.9-5.896c-.048.189-.114.416-.199.68-.085.265-.146.452-.184.56l-1.049 3.083h2.87l-1.077-3.146c-.066-.194-.127-.39-.184-.589a24.133 24.133 0 0 0-.177-.588ZM66.614 33.497c1.266 0 2.142-.633 2.629-1.899l1.821.688c-.392.963-.968 1.681-1.729 2.154-.756.468-1.663.702-2.721.702-1.068 0-1.978-.204-2.729-.61a4.121 4.121 0 0 1-1.722-1.779c-.392-.775-.588-1.705-.588-2.792 0-1.096.189-2.022.567-2.778a3.855 3.855 0 0 1 1.672-1.722c.737-.397 1.64-.596 2.708-.596 1.171 0 2.126.237 2.863.709.737.468 1.254 1.158 1.552 2.07l-1.843.503a2.13 2.13 0 0 0-.921-1.191c-.454-.298-.99-.447-1.609-.447-.945 0-1.663.293-2.154.88-.487.585-.73 1.443-.73 2.572 0 .765.11 1.41.333 1.935.227.524.557.923.992 1.197.44.27.976.404 1.609.404ZM76.955 26.63V35h-2.09v-8.37H71.64v-1.616h8.547v1.616h-3.232ZM83.13 32.449l-.886 2.55h-2.091l3.643-9.985h2.466L89.891 35h-2.07l-.886-2.551H83.13Zm1.899-5.897c-.047.189-.114.416-.199.68-.085.265-.146.452-.184.56l-1.049 3.083h2.87L85.39 27.73c-.066-.194-.127-.39-.184-.589a21.384 21.384 0 0 0-.177-.588ZM94.052 33.016c-.24.756-.546 1.294-.914 1.615-.369.322-.886.482-1.552.482-.321 0-.555-.04-.702-.12v-1.75c.062.032.163.049.305.049.137 0 .26-.04.369-.12.108-.086.207-.21.297-.376.08-.151.156-.34.227-.567.076-.232.149-.506.22-.822.042-.194.087-.423.134-.688.048-.264.107-.621.177-1.07.076-.454.168-1.051.277-1.793.109-.742.243-1.689.404-2.842h6.747V35h-2.013v-8.257h-2.884l-.348 2.467c-.255 1.767-.503 3.035-.744 3.806ZM111.297 31.945c0 .6-.149 1.132-.447 1.595-.297.458-.723.817-1.276 1.077-.552.255-1.209.383-1.97.383h-5.251v-9.986h2.09v3.976h3.388c1.11 0 1.966.26 2.566.78.6.515.9 1.24.9 2.175Zm-2.112.029c0-.44-.166-.777-.496-1.014-.326-.24-.815-.361-1.467-.361h-2.779v2.77h2.821c1.28 0 1.921-.465 1.921-1.395ZM117.443 33.497c1.266 0 2.142-.633 2.629-1.899l1.821.688c-.392.963-.968 1.681-1.729 2.154-.756.468-1.663.702-2.721.702-1.068 0-1.978-.204-2.729-.61a4.123 4.123 0 0 1-1.722-1.779c-.392-.775-.588-1.705-.588-2.792 0-1.096.189-2.022.567-2.778a3.854 3.854 0 0 1 1.672-1.722c.737-.397 1.64-.596 2.707-.596 1.172 0 2.127.237 2.864.709.737.468 1.254 1.158 1.552 2.07l-1.843.503a2.132 2.132 0 0 0-.921-1.191c-.454-.298-.99-.447-1.609-.447-.945 0-1.663.293-2.154.88-.487.585-.73 1.443-.73 2.572 0 .765.111 1.41.333 1.935.226.524.557.923.992 1.197.439.27.976.404 1.609.404ZM131.774 33.384V35h-8.143v-9.986h7.853v1.616h-5.762v2.509h5.329v1.616h-5.329v2.629h6.052ZM141.889 28.175c0 .647-.149 1.221-.446 1.722a3.068 3.068 0 0 1-1.255 1.17c-.543.278-1.191.418-1.942.418h-2.48V35h-2.091v-9.986h4.486c1.196 0 2.115.277 2.757.83.647.547.971 1.325.971 2.331Zm-2.105.035c0-1.049-.619-1.573-1.857-1.573h-2.161v3.239h2.218c.576 0 1.021-.142 1.332-.425.312-.288.468-.702.468-1.24ZM152.571 32.15c0 .908-.34 1.61-1.021 2.106-.68.496-1.625.744-2.835.744h-4.996v-9.986h4.571c1.219 0 2.14.213 2.764.638.628.42.943 1.044.943 1.871 0 .567-.159 1.047-.475 1.439-.312.387-.789.65-1.432.786.808.095 1.422.35 1.843.766.425.41.638.957.638 1.637Zm-2.679-4.343c0-.45-.144-.768-.433-.957-.283-.19-.706-.284-1.268-.284h-2.381v2.474h2.395c.591 0 1.018-.102 1.283-.305.269-.208.404-.517.404-.928Zm.581 4.18c0-.935-.671-1.402-2.013-1.402h-2.65v2.863h2.728c.671 0 1.16-.12 1.467-.362.312-.245.468-.611.468-1.098ZM161.261 27.31 156.945 35h-2.381v-9.986h1.856v5.805c0 .25-.004.538-.014.864-.009.326-.023.688-.042 1.084l4.344-7.753h2.353V35h-1.857v-5.89c0-.184.005-.425.014-.722.01-.303.024-.662.043-1.078ZM170.029 33.497c1.266 0 2.143-.633 2.63-1.899l1.821.688c-.392.963-.969 1.681-1.729 2.154-.756.468-1.663.702-2.722.702-1.068 0-1.977-.204-2.728-.61a4.12 4.12 0 0 1-1.723-1.779c-.392-.775-.588-1.705-.588-2.792 0-1.096.189-2.022.567-2.778a3.856 3.856 0 0 1 1.673-1.722c.737-.397 1.639-.596 2.707-.596 1.172 0 2.126.237 2.863.709.737.468 1.255 1.158 1.552 2.07l-1.842.503a2.129 2.129 0 0 0-.922-1.191c-.453-.298-.989-.447-1.608-.447-.945 0-1.664.293-2.155.88-.487.585-.73 1.443-.73 2.572 0 .765.111 1.41.333 1.935.227.524.558.923.992 1.197.44.27.976.404 1.609.404Z" fill="#1A2873"/></svg>