<svg width="13" height="13" viewBox="0 0 13 13" fill="none" xmlns="http://www.w3.org/2000/svg">
<rect width="13" height="13" fill="#0554F2"/>
<path fill-rule="evenodd" clip-rule="evenodd" d="M8.1128 10.9922C8.02618 10.9974 7.93885 11 7.85088 11H5.14912C2.85763 11 1 9.20914 1 7C1 4.79086 2.85762 3 5.14912 3H7.85088C10.1424 3 12 4.79086 12 7C12 8.9874 10.4966 10.6363 8.52635 10.9473L8.1128 10.9922ZM5.14912 4.02326C3.44382 4.02326 2.0614 5.35599 2.0614 7C2.0614 8.37279 3.02533 9.52854 4.33626 9.87252C3.87955 9.33814 3.60526 8.65343 3.60526 7.90697C3.60526 6.19874 5.04168 4.81395 6.8136 4.81395H9.94666C9.39613 4.32317 8.65983 4.02326 7.85088 4.02326H5.14912ZM6.31189 9.91992C6.09459 9.57754 5.96933 9.17496 5.96933 8.74418C5.96933 7.49833 7.01695 6.48837 8.30924 6.48837H10.8932C10.8524 6.26147 10.785 6.04338 10.6941 5.8372H6.8136C5.62788 5.8372 4.66667 6.76387 4.66667 7.90697C4.66667 8.88352 5.36819 9.70211 6.31189 9.91992ZM8.1301 9.96474C7.50881 9.88075 7.03074 9.36629 7.03074 8.74418C7.03074 8.06346 7.60314 7.51162 8.30924 7.51162H10.8932C10.6571 8.82539 9.52773 9.84397 8.1301 9.96474Z" fill="white"/>
</svg>
